<?xml version="1.0" encoding="utf-8"?>
<!-- Generator: Adobe Illustrator 19.2.1, SVG Export Plug-In . SVG Version: 6.00 Build 0)  -->
<svg version="1.1" id="Layer_1" xmlns="http://www.w3.org/2000/svg" xmlns:xlink="http://www.w3.org/1999/xlink" x="0px" y="0px"
	 viewBox="0 0 149.2 172.2" style="enable-background:new 0 0 149.2 172.2;" xml:space="preserve">
<style type="text/css">
	.st0{fill:#585858;}
</style>
<path class="st0" d="M140.4,60.1c-4-3.8-9.1-17.2-9.1-17.2l-16.5-7.1h-7.9c-6.1-3-20.8-9.8-26.9-10.9c-1-0.2-4,0-4,0s-3-0.2-4,0
	C65.9,26,51.1,32.8,45,35.8l0,0l-14.2,3L10.3,52.5c0,0-5.1,13.9-7.8,15.4c-2.6,1.5-2,9.8-2.5,10.6c-0.5,1,2.5,19.8,2.5,19.8
	s29.4,16.2,30.6,23c0,0-2.1-43.5,0-47.5c0.7,20.8,8.8,38.2,8.9,44.1c0.2,6,1.8,24.8,6.4,27.6c4.6,2.8,22.5,2.6,27.4-2.3
	c5,5,23,5.1,27.4,2.3c4.5-2.8,6.1-21.7,6.4-27.6c0.2-5.3,6.6-19.7,8.4-37.5l0,0c-1.2,27.1-2.5,21.2,0.5,31.7
	c3.8,12.9,6.3,11.1,6.3,11.1s-0.8-10.1,6.9-15.7c5.1-3.6,9.9-6.9,9.9-6.9l7.3-20.7C149.2,79.8,144.4,63.9,140.4,60.1z M48.8,86
	c-4.5,0-9.4-5.8-9.4-5.8s5.5-5.8,9.4-5.8c3.1,0,8.4,6.9,8.4,6.9S53.3,86,48.8,86z M78.6,136.5c-2.6,0-2.6,0-2.6,0s0,0-2.6,0
	s-7.3-11.1-6.6-14.1c0.7-2.8,5.8-4.1,8.3-4.1h1h1c2.5,0,7.6,1.3,8.3,4.1C85.7,125.4,81.1,136.5,78.6,136.5z M103.1,86
	c-4.5,0-8.4-4.6-8.4-4.6s5.5-6.9,8.4-6.9c4,0,9.4,5.8,9.4,5.8S107.5,86,103.1,86z"/>
</svg>
