<?xml version="1.0" encoding="utf-8"?>
<!-- Generator: Adobe Illustrator 19.2.1, SVG Export Plug-In . SVG Version: 6.00 Build 0)  -->
<svg version="1.1" id="Layer_1" xmlns="http://www.w3.org/2000/svg" xmlns:xlink="http://www.w3.org/1999/xlink" x="0px" y="0px"
	 viewBox="0 0 149.2 172.2" style="enable-background:new 0 0 149.2 172.2;" xml:space="preserve">
<style type="text/css">
	.st0{fill:#585858;}
	.st1{fill:#FFFFFF;}
</style>
<polygon class="st0" points="149.2,129.2 74.6,172.2 0,129.2 0,43.1 74.6,0 149.2,43.1 "/>
<g>
	<path class="st1" d="M39.8,140.3c-0.4,0-1-0.1-1.6-0.7c-0.1-0.1-1.9-1.8-3.9-3.8c-3.6-3.5-6.2-6-6.4-6.2l-0.3-0.3l-0.1-0.3
		c-0.3-1-0.2-2.1,0.3-3.1c0.5-1,2.3-3.1,4.3-5.2c1.9-2.2,8.5-9.6,9.8-10.9c1.4-1.4,2-2,3-2c0,0,0.4,0,0.9-0.5
		c0.7-1.1,2.6-3.9,3.2-4.8c0.5-0.8,1.1-1.5,1.5-1.9l-0.2-0.5c-0.3-0.9-0.2-1.7,0.4-2.3l0.1-0.1v-3.5l0.8-0.8l20.7-20L71,72.2
		l1.9-1.9H73c0.1-0.2,0.2-0.4,0.4-0.6c0.4-0.4,0.9-0.6,1.4-0.7l1.9-1.9c0.1-0.3,0.3-0.6,0.6-1c0.3-0.3,0.6-0.4,0.9-0.5l0.8-0.8
		c0.2-0.2,0.9-0.8,1.8-0.8c0,0,0.1,0,0.1,0l0.1-0.1c0.2-0.2,0.5-0.4,0.9-0.5l10.5-9.8l0.1-0.1c0.2-0.2,0.9-0.8,1.8-0.8
		c0,0,0.1,0,0.1,0l0.5-0.5l0.3-0.7l0.5,0l0.6-0.6l0.1,0.1c2.4-2.3,5.4-5.1,5.6-5.2c0.2-0.2,0.7-0.5,1.3-0.5c0.2,0,0.4,0,0.6,0.1
		c0.1,0,0.1,0,0.2,0c0,0,0,0,0,0c0.3,0,0.5,0.1,1.1,0.2c0.4,0.1,1,0.2,1.3,0.2l0.1,0h0.2c0.2,0,1.1-0.2,1.4-0.4l4.4-4.4l-0.2-0.9
		c0,0-0.2-0.2-0.2-0.2l-0.1-0.1c-0.5-0.7-0.5-1.4-0.4-2l-0.3-0.3v-0.4l-1.2-1.2v-0.6c0-0.7,0.3-1.6,0.8-2.2c0.5-0.5,1.2-1.1,2-1.4
		l0.2-0.1h0.2c1,0,1.5,0.5,2,1l2.8,2.8l1.2-1.2l1.4,1.4c1.1,1.1,1.1,2.3,0.7,3l-0.1,0.2l-0.6,0.6c0.2,0.8,0.1,1.6-0.5,2.1
		c-0.2,0.2-9.5,9.2-11.9,11.5c-0.1,0.3-0.3,0.6-0.6,0.9c-0.3,0.3-0.6,0.4-0.9,0.5l-6.8,6.4V62l-0.4,0.4c-0.1,0.1-3.5,3.5-5.3,4.9
		C93,68.5,91,70.2,90,71.1c-0.9,0.9-2.3,3-2.7,3.9c-0.1,0.4-0.5,1.3-0.5,1.6v0.6l-0.4,0.4l-1.3,1.3h-0.6c-0.1,0-0.4,0-0.6,0.1
		c-0.7,0.7-2.8,2.8-4.1,4.1c0,0,0,0,0,0c0.2,0.2,0.3,0.4,0.4,0.7c1,0.7,3.3,2.1,6.9,2.9c1.9,0.5,4.1,0.8,6.5,0.8
		c3,0,5.2-0.4,5.3-0.4l0.1,0h0.1c0.7,0,1.4,0.4,1.6,1c0.1,0.2,0.1,0.5,0.1,0.7l1.7,8.2l-0.1,0.3c-0.3,1.4-0.6,1.7-0.8,1.9
		c-0.9,0.9-5,1.2-7.6,1.2c-2.7,0-5.7-0.3-8.8-0.8c-3.8-0.6-7-2-9.4-3.3l-1.8,1.8l-0.7-0.7c-0.2,0.5-0.5,1-0.8,1.3l-3.3,3.3
		c-0.7,0.7-1.6,0.8-2,0.8c-0.1,0-0.2,0-0.3,0c0.1,0.6,0.3,1.7,0.6,3.6c0.3,1.6,0.6,3.7,0.7,4.1l0,0.1c0,0,0.1,0.1,0.1,0.1
		c0.6,0.6,1.5,1.5,1,2.9c-0.1,0.3-0.3,0.9-2.5,3.1l-0.2,0.2l-0.2,0.1c-0.4,0.2-1.7,0.8-3,0.8c-0.7,0-1.4-0.2-1.9-0.5
		c-1.1-0.7-1.4-1.3-1.8-2c0-0.1-0.1-0.2-0.1-0.3l-0.1-0.2l0-0.2c-0.1-0.5-0.4-2.1-0.8-3.7c-0.3-1.5-0.6-3-0.7-3.5
		c0-0.1-0.1-0.3-0.2-0.5l-0.6,0.6l-7.9,17l-2.3,4.2c-0.1,0.2-0.2,0.7-0.5,1.2l-0.4,0.8c-0.6,1.5-1.5,3.4-2.2,4.8
		c-0.4,0.8-0.8,1.8-0.9,1.9l-0.1,0.3L43,138l-1.5,1.5C40.8,140.1,40.2,140.3,39.8,140.3z M66.9,96.5c0.1,0,0.2,0,0.3,0
		c0.1,0,0.1,0,0.1,0c0.3-0.3,0.7-0.5,1.1-0.5c0.3,0,0.5,0.1,0.8,0.2c0.1-0.1,0.2-0.2,0.2-0.2c0.3-0.3,0.3-0.4,0.3-0.4l0-0.1
		c0-0.1,0-0.1,0-0.2l-1.2-1.2l-1.2,1.3C67.3,95.8,67.1,96.1,66.9,96.5C66.9,96.4,66.9,96.5,66.9,96.5z"/>
	<path class="st0" d="M113.5,33.5c0.4,0,0.5,0.2,0.9,0.5c0.4,0.4,3.1,3.1,3.1,3.1s0.4,0,0.5,0.2c0.2,0.2,0.5,0.2,0.5,0.2l0.8-0.8
		c0.1,0.1,0.2,0.2,0.4,0.4c0.7,0.7,0.5,1.2,0.5,1.2l-1.2,1.2c0,0,0.6,1,0.3,1.4c-0.2,0.2-12.3,11.9-12.3,11.9s0.2,0.2-0.2,0.5
		c-0.2,0.2-0.5,0.2-0.5,0.2l-7.6,7.2v0.7c0,0-3.5,3.5-5.2,4.8c-1.5,1.2-3.6,2.9-4.6,3.9c-1,1-2.5,3.3-3,4.5
		c-0.5,1.2-0.6,1.7-0.6,2.1l-0.8,0.8c-0.4,0-1.3,0.2-1.4,0.3c-0.2,0.2-5.6,5.6-5.6,5.6s0.4,0.4,0.5,0.5c0.2,0.2,0.5,0.2,0.7,0.4
		c0.2,0.2,0,0.4,0,0.4s2.7,2.4,8,3.6c2.3,0.6,4.8,0.8,6.8,0.8c3.2,0,5.5-0.4,5.5-0.4s0.4,0,0.2,0.2l1.7,8.3c0,0-0.2,0.9-0.4,1.1
		c-0.1,0.1-2.4,0.8-6.6,0.8c-2.3,0-5.1-0.2-8.5-0.8c-8.3-1.4-13.5-6.4-13.5-6.4L71.9,92l1,1l0.4,1.5l1,1.4L74.1,96l-1-1
		c0,0-0.2-0.1-0.5-0.1c-0.1,0-0.2,0-0.3,0.1c-0.2,0.2-0.4,0.4-0.4,0.4s0.2,0.5,0.2,0.9c0,0.4-0.4,1.1-0.6,1.4l-3.3,3.3
		c-0.2,0.2-0.6,0.3-1,0.3c-0.2,0-0.3,0-0.4-0.1c-0.4,0-0.9-0.2-0.9-0.2s-0.6,1-0.6,1.4c0.2,0.5,1.4,7.9,1.5,8.5
		c0,0.4,0.4,0.7,0.5,0.9c0.5,0.5,0.8,0.8,0.6,1.4c-0.2,0.5-1.9,2.3-2.2,2.5c-0.5,0.3-1.5,0.6-2.4,0.6c-0.4,0-0.8-0.1-1.1-0.3
		c-1-0.6-1-1-1.4-1.7c-0.2-0.9-1.4-6.5-1.5-7.4c-0.4-1.1-0.6-1.7-1.4-1.7c-0.7,0-0.9,0.2-0.9,0.2l-1.2,1.2l-8,17.3l-2.3,4.3
		c0,0-0.2,0.5-0.5,1.2L45,130c-1,2.5-2.9,6.4-3.1,6.9l-1.5,1.5c-0.2,0.2-0.4,0.3-0.5,0.3c-0.2,0-0.4-0.1-0.5-0.3
		c-0.2-0.2-9.9-9.6-10.3-9.9c-0.2-0.5-0.2-1.3,0.2-2c0.4-0.7,2-2.7,4.1-4.8c1.7-2.1,8.4-9.5,9.7-10.8c1.2-1.2,1.5-1.5,1.9-1.5
		c0.4,0,1.3-0.2,2.1-1c0.6-1,2.7-4.2,3.3-4.9c0.5-0.9,1.4-1.7,1.7-2.1c0.4-0.4,0.5-0.5,0.5-0.5l-0.4-1.1h-0.4c0,0-0.2-0.5,0-0.7
		c0.2-0.2,0.5-0.5,0.5-0.5l0-3.5l0.4-0.4l21.9-21.2l-0.4-0.4l-0.2,0.2l-1-1c0,0,0.2-0.2,0.4-0.4c0.4,0,0.5,0.2,0.5,0.2l0.5-0.5
		c0,0-0.4-0.4,0-0.7c0.2-0.2,0.4-0.2,0.6-0.2c0.2,0,0.3,0,0.3,0l2.7-2.7c0,0-0.2-0.2,0.2-0.5c0.2-0.2,0.5-0.2,0.5-0.2l1.1-1.1
		c0,0,0.4-0.4,0.7-0.4c0.4,0,0.7,0.4,0.7,0.4l0.5-0.5l-0.2-0.2l0.2-0.2c0.1-0.1,0.1-0.1,0.2-0.1c0.1,0,0.2,0.1,0.2,0.1l11-10.3
		l0.2-0.2c0,0,0.4-0.4,0.7-0.4c0.4,0,0.5,0.2,0.5,0.2l1.4-1.4c0,0,0,0,0,0l0.1,0.1c0,0,6.4-6,6.6-6.3c0.1-0.1,0.2-0.1,0.3-0.1
		c0.2,0,0.6,0.1,0.8,0.1c0.3,0,1.7,0.4,2.4,0.4c0.1,0,0.2,0,0.3,0c0.4,0,2-0.4,2.4-0.7c0.5-0.5,5.6-5.6,5.6-5.6s-0.4-0.9-0.6-1.5
		c0.2,0,0.3-0.1,0.3-0.1l1.2-1.2c0,0,0.5-0.5,0-1.1c-0.2-0.2-0.4-0.2-0.5-0.2c-0.3,0-0.6,0.2-0.6,0.2l-1,1c-0.1-0.5-0.4-0.9-0.5-1
		c0-0.4-0.2-0.5-0.4-0.7l-0.8-0.8c0-0.4,0.2-0.9,0.4-1.1C112.3,34.3,113,33.7,113.5,33.5 M109.5,48.6l5.6-5.6v-0.4l-5.8,5.8
		L109.5,48.6 M97.8,56.3l4.8-4.8l-0.7-0.7L97,55.6l0.2,0.2C97.4,56,97.8,56.3,97.8,56.3 M104.9,52.9l0.4-0.4l-0.2-0.2l-0.4,0.4
		L104.9,52.9 M99.6,58.1l4.8-4.8l-0.2-0.2L99.4,58L99.6,58.1 M67.2,98c0.5,0,0.9-0.2,1.1-0.4c0.1-0.1,0.1-0.1,0.2-0.1
		c0.1,0,0.2,0.1,0,0.3c-0.2,0.2-0.8,0.5-1.5,0.5c-0.1,0-0.3,0-0.4,0c-1.1,0-1.5-0.8-1.5-0.8s-0.5,0.3-0.6,0.5C64.2,98,64,98,63.9,98
		c-0.3,0-0.6-0.1-0.6-0.1s1.6,1.5,2.5,2.3c0.2,0.2,0.4,0.2,0.6,0.2c0.4,0,0.9-0.2,1-0.2c0.4,0,2.4-2.4,3.1-3.1
		c0.8-0.8,0.6-1,0.8-1.5c0.5-0.2,0-0.7,0-0.7L68.5,92l-2.5,2.9c0,0,0.2,0.2-0.4,0.7c-0.2,0.2-0.2,0.9-0.2,1.3c0.2,0.5,0.5,0.9,1,1
		C66.7,98,66.9,98,67.2,98 M113.4,38.1c0.1,0.5,0.4,0.9,0.5,1.2l0.1,0.1c-0.2,0-0.4,0-0.6-0.3c-0.4-0.5-0.1-0.8-0.1-0.8L113.4,38.1
		 M113.5,30.5H113l-0.5,0.2c-0.8,0.3-1.6,0.8-2.5,1.7c-0.9,0.9-1.2,2.2-1.2,3.2v1.2l0.9,0.9L110,38v0.4l0.2,0.2
		c0,0.7,0.2,1.4,0.6,2.2l-3.5,3.5c-0.2,0.1-0.5,0.1-0.7,0.2h-0.3l0,0c-0.2,0-0.6-0.1-0.8-0.2c-0.5-0.1-0.9-0.2-1.3-0.2l-0.1,0
		c-0.2,0-0.5-0.1-0.8-0.1c-1.3,0-2,0.6-2.4,1c-0.2,0.2-2.3,2.2-4.5,4.2L96.1,49l-1.9,1.9c-0.2,0.1-0.3,0.3-0.5,0.5l-0.1,0.1
		c-1.2,0.2-2,0.9-2.3,1.2l-0.1,0.1L81,62.4c-0.3,0.1-0.6,0.3-0.8,0.5c-1.2,0.2-2,0.9-2.3,1.2l-0.5,0.5c-0.4,0.2-0.8,0.4-1.1,0.7
		c-0.4,0.4-0.7,0.8-0.8,1.2l-1.3,1.3c-0.6,0.2-1.2,0.5-1.7,1c0,0-0.1,0.1-0.1,0.1h0l-0.9,0.9L71,70.1l-2.1,2.1l1.3,1.3L50.7,92.5
		l0,0l0,0l-0.4,0.4l-0.9,0.9V95l0,2.3c-0.6,0.8-0.8,1.9-0.5,3.1c-0.4,0.4-0.7,0.9-1.1,1.5c-0.6,0.9-2.3,3.4-3.1,4.6c0,0,0,0,0,0
		c-1.5,0.1-2.3,0.9-3.8,2.4c-1.5,1.5-8,8.7-9.8,10.9c-1.8,1.8-3.9,4.2-4.6,5.5c-0.7,1.4-0.8,2.9-0.3,4.3l0.2,0.7l0.5,0.5
		c0.2,0.2,2.7,2.6,6.5,6.3c2,1.9,3.6,3.5,3.8,3.6c0.7,0.7,1.7,1.1,2.7,1.1c1,0,1.9-0.4,2.7-1.2l1.5-1.5l0.5-0.5l0.2-0.6
		c0.1-0.2,0.5-1.1,0.8-1.8c0.7-1.5,1.6-3.4,2.2-4.8l0.3-0.6l0-0.1l0-0.1c0.2-0.5,0.4-0.9,0.5-1.2l2.2-4.1l0-0.1l0-0.1l6.5-14.1
		c0,0.1,0,0.1,0,0.2c0.3,1.6,0.7,3.2,0.8,3.7l0.1,0.4l0.2,0.4c0,0.1,0.1,0.2,0.1,0.3c0.4,0.9,0.9,1.7,2.3,2.7
		c0.8,0.5,1.7,0.7,2.7,0.7c1.6,0,3.1-0.7,3.7-1l0.4-0.2l0.3-0.3c2.3-2.3,2.7-3.1,2.9-3.7c0.7-2.1-0.5-3.5-1.2-4.3
		c-0.1-0.7-0.4-2.4-0.7-3.7c-0.1-0.8-0.3-1.5-0.4-2.1c0.6-0.2,1.2-0.5,1.7-1l3.2-3.2l0.5,0.5l2.1-2.1c2.4,1.2,5.4,2.4,8.9,3
		c3.2,0.5,6.2,0.8,9,0.8c2.1,0,7.2-0.2,8.7-1.6c0.4-0.4,0.9-1,1.2-2.6l0.1-0.6l-0.1-0.6l-1.6-7.7c0-0.4-0.1-0.8-0.2-1.2
		c-0.5-1.2-1.6-1.9-3-1.9h-0.3l-0.3,0c0,0-2.2,0.4-5,0.4c-2.3,0-4.3-0.2-6.1-0.7l0,0l0,0c-2.6-0.6-4.4-1.5-5.5-2.2l2.7-2.7h1.1
		l0.9-0.9l0.8-0.8l0.9-0.9v-1.1c0.1-0.2,0.2-0.6,0.4-1.2c0.3-0.7,1.5-2.6,2.3-3.4c0.8-0.8,2.7-2.4,4.3-3.7c1.9-1.5,5.3-4.9,5.5-5.1
		l0.9-0.9v-0.7l6.1-5.8c0.4-0.2,0.8-0.4,1.2-0.8c0.4-0.4,0.6-0.8,0.8-1.2c3.4-3.3,11.5-11.1,11.7-11.3c0.7-0.7,1-1.6,1-2.6l0.2-0.2
		l0.2-0.3c0.7-1.2,0.7-3.2-0.9-4.8l-0.2-0.2l-0.1-0.1l-2.1-2.1l-1.2,1.2l-1.7-1.7C116,31.4,115.1,30.5,113.5,30.5L113.5,30.5z
		 M94,55.3C94,55.3,94,55.3,94,55.3L94,55.3L94,55.3z M94,55.3C94,55.3,94,55.3,94,55.3L94,55.3L94,55.3z"/>
</g>
<g>
	<path class="st1" d="M117.2,136.4c-0.6,0-1.5-0.2-2.3-1l-2-2l-0.2-0.6c-0.1-0.2-0.5-1.1-0.8-1.8c-0.7-1.4-1.6-3.4-2.2-4.8l-0.4-0.7
		l0-0.1c-0.2-0.5-0.4-0.9-0.5-1.2l-2.2-4.2l-7.2-15.5c-0.1,0.5-0.2,1.1-0.4,1.7c-0.3,1.6-0.7,3.2-0.8,3.7l-0.1,0.3l-0.2,0.3
		c-0.1,0.1-0.1,0.2-0.1,0.3c-0.4,0.8-0.8,1.6-2.1,2.4c-0.7,0.4-1.5,0.7-2.4,0.7c-1.5,0-3-0.6-3.5-0.9l-0.4-0.2l-0.3-0.3
		c-2.2-2.2-2.6-3-2.8-3.5c-0.6-1.9,0.5-3.2,1.2-3.9c0.1-0.6,0.4-2.5,0.7-3.9c0.2-1.1,0.3-1.9,0.4-2.5c-0.7-0.1-1.4-0.5-1.9-1
		l-3.3-3.3c-0.1-0.1-0.2-0.2-0.3-0.3l-0.5,0.5l-2-2c-2.4,1.3-5.5,2.5-9.1,3.1c-3.1,0.5-6.1,0.8-8.9,0.8c-1.1,0-6.9-0.1-8.3-1.5
		c-0.3-0.3-0.8-0.9-1-2.4l-0.1-0.5l1.7-8.3c0-0.4,0.1-0.7,0.2-1c0.4-1,1.4-1.6,2.5-1.6h0.2l0.2,0c0,0,2.2,0.4,5.1,0.4
		c2.3,0,4.4-0.2,6.2-0.7c3.1-0.8,5.2-1.9,6.3-2.6c-1.2-1.2-2.6-2.6-3.3-3.3c-0.1,0-0.1,0-0.1,0h-1l-0.7-0.7l-1.6-1.6v-0.9
		c-0.1-0.2-0.2-0.6-0.5-1.3c-0.3-0.8-1.6-2.8-2.4-3.6c-0.9-0.9-3-2.6-4.4-3.7c-1.9-1.5-5.3-4.9-5.4-5l-0.7-0.7v-0.7l-6.3-6
		c-0.4-0.1-0.7-0.4-1.1-0.7c-0.4-0.4-0.6-0.7-0.7-1.1C44.8,46.2,36.1,37.8,36,37.7c-0.7-0.7-0.9-1.5-0.8-2.5l-0.3-0.3l-0.2-0.3
		c-0.6-1-0.7-2.7,0.8-4.2l2.1-2.1l1.2,1.2l2.1-2.1c0.5-0.5,1.3-1.3,2.7-1.3h0.4l0.4,0.1c1,0.3,1.8,1.1,2.3,1.6
		c0.8,0.8,1.1,2,1.1,2.9v1l-1.2,1.2v0.4l-0.2,0.2c0.1,0.7-0.1,1.4-0.6,2.2l-0.1,0.2l0,0.1l3.9,3.9c0.3,0.1,0.7,0.2,0.9,0.2h0.3
		l0.1,0c0.3,0,0.7-0.1,1-0.2c0.5-0.1,0.9-0.2,1.3-0.2l0.1,0c0.3,0,0.5-0.1,0.8-0.1c1,0,1.7,0.4,2.1,0.8c0.2,0.2,2.6,2.5,4.8,4.6
		l0.1-0.1l1,1h0.7l0.5,1.2l0.1,0.1c1.1,0.1,1.9,0.8,2.2,1.1l0.2,0.2l10.3,9.6c0.3,0.1,0.6,0.3,0.9,0.5c1.1,0.1,1.9,0.8,2.2,1.1
		l0.6,0.6c0.3,0.1,0.7,0.3,1,0.7c0.4,0.4,0.6,0.8,0.8,1.1l1.5,1.5c0.6,0.1,1.2,0.4,1.6,0.9c0.1,0.1,0.2,0.2,0.2,0.3h0l2.9,2.9
		l-1.3,1.3L106.1,88l1.1,1.1v3.5c0.6,0.8,0.8,1.9,0.4,3c0.4,0.4,0.8,1,1.2,1.6c0.6,0.9,2.4,3.5,3.1,4.7c0.1,0.1,0.2,0.1,0.3,0.1
		c1.3,0,2.1,0.8,3.6,2.3c1.5,1.5,8,8.7,9.8,10.9c1.8,1.8,3.9,4.2,4.5,5.4c0.6,1.2,0.7,2.7,0.3,3.9l-0.2,0.6l-0.4,0.4
		c-0.2,0.2-3,2.9-6.8,6.5c-1.8,1.8-3.4,3.3-3.5,3.4C118.7,136.2,117.8,136.4,117.2,136.4z"/>
	<path class="st0" d="M43.5,28.6c0.5,0.2,1.2,0.8,1.4,1c0.2,0.2,0.4,0.7,0.4,1.1l-0.8,0.8c-0.2,0.2-0.4,0.4-0.4,0.7
		c-0.1,0.1-0.4,0.5-0.5,1l-1-1c0,0-0.2-0.2-0.6-0.2c-0.2,0-0.3,0.1-0.5,0.2c-0.5,0.5,0,1.1,0,1.1l1.2,1.2c0,0,0.1,0.1,0.3,0.1
		c-0.3,0.6-0.6,1.5-0.6,1.5s5.1,5.1,5.6,5.6c0.4,0.4,2,0.7,2.4,0.7c0.1,0,0.2,0,0.3,0c0.7,0,2.1-0.4,2.4-0.4c0.2,0,0.6-0.1,0.8-0.1
		c0.1,0,0.2,0,0.3,0.1c0.3,0.3,6.6,6.3,6.6,6.3s0.1-0.1,0.1-0.1l1.4,1.4c0,0,0.2-0.2,0.5-0.2c0.4,0,0.7,0.4,0.7,0.4l0.2,0.2l11,10.3
		c0,0,0.1-0.1,0.2-0.1c0.1,0,0.1,0,0.2,0.1l0.2,0.2l-0.2,0.2l0.5,0.5c0,0,0.4-0.4,0.7-0.4c0.4,0,0.7,0.4,0.7,0.4l1.1,1.1
		c0,0,0.4,0,0.5,0.2c0.4,0.4,0.2,0.5,0.2,0.5l2.7,2.7c0,0,0.1,0,0.3,0c0.2,0,0.4,0,0.6,0.2c0.4,0.4,0,0.7,0,0.7l0.5,0.5
		c0,0,0.2-0.2,0.5-0.2c0.2,0.2,0.4,0.4,0.4,0.4l-1,1l-0.2-0.2l-0.4,0.4l21.9,21.2l0.4,0.4v3.5c0,0,0.4,0.4,0.5,0.5
		c0.2,0.2,0,0.7,0,0.7h-0.4l-0.4,1.1c0,0,0.2,0.2,0.5,0.5c0.4,0.4,1.2,1.2,1.7,2.1c0.5,0.7,2.6,3.9,3.3,4.9c0.8,0.8,1.7,1,2.1,1
		c0.4,0,0.7,0.4,1.9,1.5c1.4,1.4,8,8.7,9.7,10.8c2.1,2.1,3.7,4.1,4.1,4.8c0.4,0.7,0.4,1.5,0.2,2c-0.4,0.4-10.1,9.7-10.3,9.9
		c-0.2,0.2-0.4,0.3-0.5,0.3c-0.2,0-0.4-0.1-0.5-0.3l-1.5-1.5c-0.2-0.5-2.1-4.5-3.1-6.9l-0.4-0.7c-0.3-0.6-0.5-1.2-0.5-1.2L109,119
		l-8-17.3l-1.2-1.2c0,0-0.2-0.2-0.9-0.2c-0.7,0-1,0.6-1.4,1.7c-0.2,0.9-1.4,6.5-1.5,7.4c-0.4,0.7-0.4,1.1-1.4,1.7
		c-0.3,0.2-0.7,0.3-1.1,0.3c-0.9,0-1.9-0.4-2.4-0.6c-0.3-0.3-2-2-2.2-2.5c-0.2-0.5,0.1-0.8,0.6-1.4c0.2-0.2,0.5-0.5,0.5-0.9
		c0.2-0.5,1.4-7.9,1.5-8.5c0-0.4-0.6-1.4-0.6-1.4s-0.5,0.2-0.9,0.2c-0.1,0-0.2,0.1-0.4,0.1c-0.3,0-0.7-0.1-1-0.3l-3.3-3.3
		c-0.3-0.3-0.6-1-0.6-1.4c0-0.4,0.2-0.9,0.2-0.9s-0.2-0.2-0.4-0.4c-0.1-0.1-0.2-0.1-0.3-0.1c-0.2,0-0.5,0.1-0.5,0.1l-1,1l-0.2-0.2
		l1-1.4l0.4-1.5l1-1l-0.2-0.2c0,0-5.2,5-13.5,6.4c-3.4,0.6-6.3,0.8-8.5,0.8c-4.2,0-6.4-0.7-6.6-0.8c-0.2-0.2-0.4-1.1-0.4-1.1
		l1.7-8.3c-0.2-0.2,0.2-0.2,0.2-0.2s2.4,0.4,5.5,0.4c2.1,0,4.5-0.2,6.8-0.8c5.3-1.3,8-3.6,8-3.6s-0.2-0.2,0-0.4
		c0.2-0.2,0.5-0.2,0.7-0.4c0.2-0.2,0.5-0.5,0.5-0.5s-5.5-5.5-5.6-5.6c-0.1-0.1-1-0.3-1.4-0.3l-0.8-0.8c0-0.4-0.2-0.9-0.6-2.1
		c-0.5-1.2-2-3.5-3-4.5c-1-1-3.1-2.7-4.6-3.9c-1.7-1.4-5.2-4.8-5.2-4.8v-0.7l-7.6-7.2c0,0-0.4,0-0.5-0.2C49.8,48,50,47.8,50,47.8
		S37.9,36.1,37.7,35.9c-0.4-0.4,0.3-1.4,0.3-1.4l-1.2-1.2c0,0-0.3-0.5,0.5-1.2c0.2-0.2,0.3-0.3,0.4-0.4l0.8,0.8c0,0,0.4,0,0.5-0.2
		c0.2-0.2,0.5-0.2,0.5-0.2s2.7-2.7,3.1-3.1C43,28.8,43.2,28.6,43.5,28.6 M47.5,43.7l0.2-0.2l-5.8-5.8v0.4L47.5,43.7 M59.3,51.5
		c0,0,0.4-0.4,0.5-0.5l0.2-0.2l-4.8-4.8l-0.7,0.7L59.3,51.5 M52.2,48l0.2-0.2L52,47.5l-0.2,0.2L52.2,48 M57.5,53.3l0.2-0.2l-4.8-4.8
		l-0.2,0.2L57.5,53.3 M89.7,95.3C89.7,95.3,89.7,95.3,89.7,95.3c0.1,0,0.6,0.2,1,0.2c0.2,0,0.4-0.1,0.6-0.2c0.8-0.8,2.5-2.3,2.5-2.3
		s-0.2,0.1-0.6,0.1c-0.2,0-0.3,0-0.5-0.1c-0.2-0.2-0.6-0.5-0.6-0.5s-0.5,0.8-1.5,0.8c-0.1,0-0.3,0-0.4,0c-0.7,0-1.3-0.3-1.5-0.5
		c-0.1-0.1-0.1-0.3,0-0.3c0,0,0.1,0,0.2,0.1c0.2,0.2,0.6,0.4,1.1,0.4c0.2,0,0.5,0,0.8-0.1c0.5-0.1,0.8-0.5,1-1c0-0.4,0-1.1-0.2-1.3
		c-0.5-0.5-0.4-0.7-0.4-0.7l-2.5-2.9l-2.8,2.8c0,0-0.5,0.5,0,0.7c0.2,0.5,0,0.7,0.8,1.5C87.3,93,89.3,95.3,89.7,95.3 M43.6,33.3
		l0.2,0.2c0,0,0.3,0.3-0.1,0.8c-0.3,0.3-0.5,0.3-0.6,0.3l0.1-0.1C43.3,34.2,43.5,33.7,43.6,33.3 M60.9,48.3
		C60.9,48.3,60.9,48.4,60.9,48.3C60.9,48.4,60.9,48.3,60.9,48.3 M40.6,23.1l-0.3,1.5c-0.5,0.4-0.9,0.7-1.2,1l-0.3,0.3l-1.2-1.2
		l-3.5,3.5l-0.4,0.4c-2.4,2.4-2.3,5.4-1.2,7.3l0.1,0.2c0,0.5,0.2,1,0.3,1.5l-2,2h3.3c0.9,0.9,7,6.8,11.3,11c0.3,0.5,0.6,0.9,1,1.4
		c0.5,0.5,0.9,0.8,1.4,1l5.2,4.9v0.7l1.5,1.5c0.4,0.4,3.7,3.7,5.6,5.2l0,0l0,0c1.6,1.2,3.4,2.8,4.1,3.5c0.6,0.6,1.6,2.2,1.9,2.7
		c0.1,0.4,0.2,0.6,0.3,0.8v1.6l1.5,1.5l0.8,0.8l1.5,1.5h1.1l0.1,0.1c-0.8,0.3-1.6,0.6-2.6,0.8l0,0l0,0c-1.6,0.4-3.5,0.6-5.6,0.6
		c-2.6,0-4.6-0.3-4.6-0.4l-0.4-0.1l-0.5,0c-2.2,0-4.1,1.2-4.8,3.2c-0.2,0.6-0.4,1.1-0.4,1.7l-1.6,7.5l-0.2,1l0.2,1
		c0.3,1.7,0.9,2.8,1.7,3.6c0.6,0.6,2.2,2.2,10.1,2.2c2.9,0,6.1-0.3,9.4-0.8c3.1-0.5,5.8-1.5,8.1-2.5l2.5,2.5l0.5-0.5l1.8,1.8
		c0.3,0.3,0.5,0.5,0.8,0.7c0,0.2-0.1,0.4-0.1,0.6c-0.2,1-0.4,2.3-0.6,3.1c-2.2,2.7-1.5,5-1.2,5.8c0.4,1.1,1,2.1,3.4,4.5l0.6,0.6
		l0.7,0.4c0.7,0.3,2.5,1.2,4.6,1.2c1.4,0,2.7-0.4,3.8-1.1c1.7-1.1,2.5-2.2,3-3.3l4.2,9l0.1,0.1l0.1,0.1l2.1,3.9
		c0.1,0.3,0.3,0.7,0.4,1.1l0.1,0.1l0.1,0.1l0.3,0.6c0.6,1.5,1.5,3.4,2.2,4.8c0.3,0.6,0.7,1.4,0.8,1.7l0.3,1l0.8,0.8l1.5,1.5
		c1.1,1.1,2.6,1.7,4.1,1.7c1.5,0,3-0.6,4.1-1.7c0.1-0.1,1.8-1.7,3.7-3.6c4.4-4.3,6.3-6.1,6.6-6.3l0.8-0.8l0.4-1.1
		c0.6-1.9,0.5-4-0.5-5.8c-1-1.9-3.9-5-4.9-6c-2-2.3-8.4-9.5-9.9-11c-1.3-1.3-2.4-2.4-4.1-2.8c-0.8-1.2-2-3-2.6-3.9
		c-0.2-0.3-0.4-0.6-0.6-0.9c0.1-1.1-0.1-2.1-0.6-3.1v-1.7v-2.1l-1.5-1.5l-0.4-0.4l0,0l0,0L89.7,68.7l1.3-1.3l-3.5-3.5l-0.4-0.4
		L85.6,62h-0.1c-0.5-0.4-1-0.7-1.5-0.9l-0.7-0.7c-0.3-0.5-0.6-1-1.1-1.4c-0.4-0.4-0.9-0.7-1.4-1l-0.3-0.3c-0.4-0.4-1.5-1.3-3-1.7
		c-0.2-0.1-0.3-0.2-0.5-0.3l-10-9.3l-0.1-0.1c-0.4-0.4-1.3-1.2-2.7-1.6l-3.5-3.5l-0.2,0.2c-1.5-1.4-2.8-2.7-3-2.9
		c-1-1-2.3-1.5-3.8-1.5c-0.5,0-0.9,0.1-1.1,0.1c-0.5,0-1,0.1-1.5,0.2c-0.1,0-0.3,0.1-0.5,0.1l-2.1-2.1c0.1-0.3,0.1-0.6,0.2-0.8
		l0.2-0.2V34l1.2-1.2v-2.1c0-0.1,0-0.2,0-0.3l0.3-0.7h-0.4c-0.2-1.2-0.7-2.5-1.7-3.5c-1.1-1.1-2.2-1.8-3.3-2.2l-0.8-0.3h-0.8
		c-0.8,0-1.5,0.2-2.1,0.4L40.6,23.1L40.6,23.1z"/>
</g>
</svg>
